<svg id="Layer_1" xmlns="http://www.w3.org/2000/svg" viewBox="-293 385 24 24"><style>.st0{fill:none;stroke:black;stroke-linejoin:round;} .st1{fill:none;stroke:black;} .st2{fill:none;stroke:black;stroke-linecap:square;}</style><title>24x24-ride-lightgrey</title><path class="st0" d="M-277.4 393.7h-6.3"/><path class="st1" d="M-287.3 401.9c1.7 0 3.2-1.4 3.2-3.2 0-1-.5-2-1.3-2.6-.5-.4-1.2-.6-1.9-.6-1.7 0-3.2 1.4-3.2 3.2s1.4 3.2 3.2 3.2zm12.6 0c1.7 0 3.2-1.4 3.2-3.2 0-1-.5-2-1.3-2.6-.5-.4-1.2-.6-1.9-.6-1.7 0-3.2 1.4-3.2 3.2s1.5 3.2 3.2 3.2z"/><path class="st2" d="M-286.9 391h3.6m-1.8.5l3.6 6.8m0-.1l3.2-4.1m-6.8 1.9l1.4-1.8m8.6-1.4h-2.7m2.7 0v.9m-2.7.5l1.4 1.8"/></svg>