<svg id="Layer_1" xmlns="http://www.w3.org/2000/svg" viewBox="-293 385 24 24"><style>.st0{fill:none;stroke:black;}</style><title>24x24-run-lightgrey</title><path class="st0" d="M-273.5 398c-.5-.1-1-.2-1.5-.5-.1-.1-3-1.3-6-4.6-.3-.3-.6-.4-.9-.4-.6-.1-1.1.2-1.4.5-.3.3-1.3.8-2.5.6-.1 0-.2 0-.3-.1-.6-.2-.8-.6-1-1-.2-.4-.4-1-1.1-1-.8 0-1.3 1.2-1.5 1.8-.3.8-.4 1.5-.2 2.1-.2.2-.3.5-.5.8-.2.7 0 1.3.7 1.8.9.7 2.1 1.2 3.5 1.4.8.1 1.5.1 1.9.1h.1c.4 0 .7 0 1.3.1.3 0 .6.1.9.2.9.2 1.7.6 2.6.9.4.2.8.4 1.2.5.4.1.8.3 1.3.3.6.1 1.2.1 1.8.1 1.9-.1 2.8-.8 3.4-1.3 0 0 .6-.7.1-1.4-.4-.6-1.6-.8-1.9-.9z"/></svg>