<?xml version="1.0" encoding="utf-8"?>
<!-- Svg Vector Icons : http://www.onlinewebfonts.com/icon -->
<!DOCTYPE svg PUBLIC "-//W3C//DTD SVG 1.1//EN" "http://www.w3.org/Graphics/SVG/1.1/DTD/svg11.dtd">
<svg version="1.1" xmlns="http://www.w3.org/2000/svg" xmlns:xlink="http://www.w3.org/1999/xlink" x="0px" y="0px" viewBox="0 0 1000 1000" enable-background="new 0 0 1000 1000" xml:space="preserve">
<metadata> Svg Vector Icons : http://www.onlinewebfonts.com/icon </metadata>
<g><g transform="translate(0.000000,511.000000) scale(0.100000,-0.100000)"><path d="M2392.5,2537.9c-324.7-73.8-693.7-236.1-996.3-439.1c-339.5-225.1-749-667.9-892.9-955.7C293,715.2,163.8-4.3,112.2-989.6c-22.1-453.8-18.4-512.9,48-667.9c140.2-309.9,416.9-450.1,1033.2-516.6c413.3-48,1118-7.3,1885.5,103.3c332.1,48,424.3,51.6,468.6,14.7c29.5-25.8,55.3-59,55.3-73.8c0-14.7-140.2-48-317.3-73.8c-258.3-36.9-309.9-55.3-302.6-107c7.4-33.2,44.3-55.4,84.9-51.7c118.1,14.8,6516.3,892.9,6671.3,918.8c191.9,29.5,184.5,125.4-11.1,125.4c-114.4,0-140.2,11.1-125.5,55.4c14.8,33.2,70.1,55.3,147.6,55.3c77.5,0,136.5,22.2,147.6,55.4c11.1,29.5-18.4,346.9-66.4,708.5L9746.4,206l-645.7,276.7c-2136.4,904-4306.1,1726.9-5254.4,1985.2C3422,2585.9,2739.4,2619.1,2392.5,2537.9z M1879.6,1774.1c177.1-132.8,59-509.2-158.7-509.2c-147.6,0-239.8,136.5-206.6,313.6C1551.2,1774.1,1739.4,1877.5,1879.6,1774.1z M5373.9,1445.7c155-40.6,785.9-243.5,1402.1-453.8l1121.7-376.4l25.8-129.1c14.8-70.1,33.2-254.6,40.6-409.6c18.4-269.4,14.7-287.8-55.3-287.8c-81.2,0-3808,468.6-3999.8,501.8L3794.7,313L3898,619.2c55.3,166,132.8,350.5,169.7,409.6C4351.8,1490,4750.3,1615.5,5373.9,1445.7z M2717.2,674.6c0-73.8-25.8-73.8-1103.3-73.8c-1070.1,0-1191.8,11.1-1129.1,110.7c14.8,22.1,431.7,36.9,1129.1,36.9C2691.4,748.4,2717.2,748.4,2717.2,674.6z M9130.2,265c276.7-84.9,516.6-162.3,531.4-177.1c11.1-11.1,33.2-132.9,48-265.7l25.8-243.5l-575.6,96l-575.6,92.2V91.6c0,177.1,11.1,324.7,22.1,324.7C8617.3,416.3,8853.4,349.9,9130.2,265z M8344.3-266.3c0-512.9-3.7-553.5-70.1-564.5c-36.9-7.4-81.2,7.4-99.6,36.9c-36.9,59-44.3,1040.5-7.4,1077.4c14.7,14.8,59,22.1,103.3,14.8C8340.6,287.1,8344.3,261.3,8344.3-266.3z M2034.6,194.9c0-48-95.9-55.4-605.1-66.4c-583-7.4-708.5,11.1-649.4,99.6c14.8,29.5,217.7,40.6,638.3,33.2C1938.7,250.2,2034.6,242.9,2034.6,194.9z M842.8-347.5c132.8-118,48-416.9-121.8-416.9c-151.3,0-236.1,284.1-118.1,413.3C676.7-270,754.2-266.3,842.8-347.5z M1728.3-347.5c129.1-114.4,48-416.9-110.7-416.9c-166,0-254.6,276.7-129.1,413.3C1562.3-270,1639.8-266.3,1728.3-347.5z M9359-1314.2c0-33.2-88.6-77.5-151.3-77.5c-18.4,0-33.2,25.8-33.2,55.4c0,33.2,33.2,55.3,92.2,55.3C9318.4-1281.1,9359-1295.8,9359-1314.2z M8842.4-1373.3c0-29.5-36.9-62.7-81.2-73.8c-140.2-29.5-3852.2-535-3937.1-535c-81.2,0-95.9,25.8-48,96c14.8,25.8,756.4,136.5,1815.4,273c985.2,125.5,1874.4,243.5,1974.1,258.3C8842.4-1314.2,8842.4-1314.2,8842.4-1373.3z M4340.8-1963.7c59-70.1,51.7-77.5-99.6-110.7c-125.5-25.8-143.9-3.7-99.6,107C4171-1893.6,4281.7-1889.9,4340.8-1963.7z"/></g></g>
</svg>